<svg width="24" height="24" viewBox="0 0 24 24" fill="none" xmlns="http://www.w3.org/2000/svg">
<path d="M6.19043 1.59766C6.35937 1.59766 6.52832 1.60547 6.69727 1.62207C6.86523 1.63867 7.0332 1.66406 7.19922 1.69727C7.36523 1.72949 7.5293 1.77051 7.69141 1.82031C7.85352 1.86914 8.0127 1.92578 8.16895 1.99121C8.3252 2.05566 8.47852 2.12793 8.62793 2.20801C8.77734 2.28809 8.92188 2.375 9.0625 2.46875C9.2041 2.5625 9.33984 2.66406 9.4707 2.77148C9.60156 2.87891 9.72656 2.99219 9.84668 3.1123C9.96582 3.23145 10.0801 3.35645 10.1875 3.48828C10.2949 3.61914 10.3955 3.75488 10.4893 3.89551C10.583 4.03613 10.6709 4.18164 10.75 4.33105C10.8301 4.47949 10.9023 4.63281 10.9668 4.78906C11.0322 4.94531 11.0889 5.10449 11.1377 5.2666C11.1875 5.42871 11.2285 5.59277 11.2617 5.75879C11.2949 5.92578 11.3193 6.09277 11.3359 6.26074C11.3525 6.42969 11.3604 6.59863 11.3604 6.76758C11.3604 6.9375 11.3525 7.10645 11.3359 7.27441C11.3193 7.44336 11.2949 7.61035 11.2617 7.77637C11.2285 7.94238 11.1875 8.10645 11.1377 8.26855C11.0889 8.43066 11.0322 8.58984 10.9668 8.74707C10.9023 8.90332 10.8301 9.05566 10.75 9.20508C10.6709 9.35449 10.583 9.5 10.4893 9.64062C10.3955 9.78125 10.2949 9.91699 10.1875 10.0479C10.0801 10.1787 9.96582 10.3047 9.84668 10.4238C9.72656 10.5439 9.60156 10.6572 9.4707 10.7646C9.33984 10.8721 9.2041 10.9727 9.0625 11.0674C8.92188 11.1611 8.77734 11.248 8.62793 11.3281C8.47852 11.4082 8.3252 11.4805 8.16895 11.5449C8.0127 11.6094 7.85352 11.667 7.69141 11.7158C7.5293 11.7646 7.36523 11.8057 7.19922 11.8389C7.0332 11.8721 6.86523 11.8965 6.69727 11.9131C6.52832 11.9297 6.35937 11.9385 6.19043 11.9385C6.02051 11.9385 5.85156 11.9297 5.68359 11.9131C5.51465 11.8965 5.34766 11.8721 5.18164 11.8389C5.01563 11.8057 4.85156 11.7646 4.68945 11.7158C4.52734 11.667 4.36816 11.6094 4.21191 11.5449C4.05566 11.4805 3.90234 11.4082 3.75293 11.3281C3.60352 11.248 3.45898 11.1611 3.31738 11.0674C3.17676 10.9727 3.04102 10.8721 2.91016 10.7646C2.7793 10.6572 2.6543 10.5439 2.53418 10.4238C2.41406 10.3047 2.30078 10.1787 2.19336 10.0479C2.08594 9.91699 1.98535 9.78125 1.8916 9.64062C1.79688 9.5 1.70996 9.35449 1.62988 9.20508C1.55078 9.05566 1.47852 8.90332 1.41309 8.74707C1.34863 8.58984 1.29199 8.43066 1.24219 8.26855C1.19336 8.10645 1.15234 7.94238 1.11914 7.77637C1.08594 7.61035 1.06152 7.44336 1.04492 7.27441C1.02832 7.10645 1.01953 6.9375 1.01953 6.76758C1.01953 6.59863 1.02832 6.42969 1.04492 6.26074C1.06152 6.09277 1.08594 5.92578 1.11914 5.75879C1.15234 5.59277 1.19336 5.42871 1.24219 5.2666C1.29199 5.10449 1.34863 4.94531 1.41309 4.78906C1.47852 4.63281 1.55078 4.47949 1.62988 4.33105C1.70996 4.18164 1.79688 4.03613 1.8916 3.89551C1.98535 3.75488 2.08594 3.61914 2.19336 3.48828C2.30078 3.35645 2.41406 3.23145 2.53418 3.1123C2.6543 2.99219 2.7793 2.87891 2.91016 2.77148C3.04102 2.66406 3.17676 2.5625 3.31738 2.46875C3.45898 2.375 3.60352 2.28809 3.75293 2.20801C3.90234 2.12793 4.05566 2.05566 4.21191 1.99121C4.36816 1.92578 4.52734 1.86914 4.68945 1.82031C4.85156 1.77051 5.01563 1.72949 5.18164 1.69727C5.34766 1.66406 5.51465 1.63867 5.68359 1.62207C5.85156 1.60547 6.02051 1.59766 6.19043 1.59766ZM17.748 1.59766C17.917 1.59766 18.0859 1.60547 18.2549 1.62207C18.4229 1.63867 18.5908 1.66406 18.7568 1.69727C18.9229 1.72949 19.0869 1.77051 19.249 1.82031C19.4111 1.86914 19.5703 1.92578 19.7266 1.99121C19.8828 2.05566 20.0361 2.12793 20.1855 2.20801C20.335 2.28809 20.4795 2.375 20.6201 2.46875C20.7617 2.5625 20.8975 2.66406 21.0283 2.77148C21.1592 2.87891 21.2842 2.99219 21.4043 3.1123C21.5234 3.23145 21.6377 3.35645 21.7451 3.48828C21.8525 3.61914 21.9531 3.75488 22.0469 3.89551C22.1406 4.03613 22.2275 4.18164 22.3076 4.33105C22.3877 4.47949 22.46 4.63281 22.5244 4.78906C22.5898 4.94531 22.6465 5.10449 22.6953 5.2666C22.7451 5.42871 22.7861 5.59277 22.8193 5.75879C22.8516 5.92578 22.877 6.09277 22.8936 6.26074C22.9102 6.42969 22.918 6.59863 22.918 6.76758C22.918 6.9375 22.9102 7.10645 22.8936 7.27441C22.877 7.44336 22.8516 7.61035 22.8193 7.77637C22.7861 7.94238 22.7451 8.10645 22.6953 8.26855C22.6465 8.43066 22.5898 8.58984 22.5244 8.74707C22.46 8.90332 22.3877 9.05566 22.3076 9.20508C22.2275 9.35449 22.1406 9.5 22.0469 9.64062C21.9531 9.78125 21.8525 9.91699 21.7451 10.0479C21.6377 10.1787 21.5234 10.3047 21.4043 10.4238C21.2842 10.5439 21.1592 10.6572 21.0283 10.7646C20.8975 10.8721 20.7617 10.9727 20.6201 11.0674C20.4795 11.1611 20.335 11.248 20.1855 11.3281C20.0361 11.4082 19.8828 11.4805 19.7266 11.5449C19.5703 11.6094 19.4111 11.667 19.249 11.7158C19.0869 11.7646 18.9229 11.8057 18.7568 11.8389C18.5908 11.8721 18.4229 11.8965 18.2549 11.9131C18.0859 11.9297 17.917 11.9385 17.748 11.9385C17.5781 11.9385 17.4092 11.9297 17.2412 11.9131C17.0723 11.8965 16.9053 11.8721 16.7393 11.8389C16.5732 11.8057 16.4092 11.7646 16.2471 11.7158C16.085 11.667 15.9258 11.6094 15.7695 11.5449C15.6123 11.4805 15.46 11.4082 15.3105 11.3281C15.1611 11.248 15.0156 11.1611 14.875 11.0674C14.7344 10.9727 14.5986 10.8721 14.4678 10.7646C14.3369 10.6572 14.2119 10.5439 14.0918 10.4238C13.9717 10.3047 13.8584 10.1787 13.751 10.0479C13.6436 9.91699 13.543 9.78125 13.4492 9.64062C13.3545 9.5 13.2676 9.35449 13.1875 9.20508C13.1084 9.05566 13.0361 8.90332 12.9707 8.74707C12.9063 8.58984 12.8496 8.43066 12.7998 8.26855C12.751 8.10645 12.71 7.94238 12.6768 7.77637C12.6436 7.61035 12.6191 7.44336 12.6025 7.27441C12.5859 7.10645 12.5771 6.9375 12.5771 6.76758C12.5771 6.59863 12.5859 6.42969 12.6025 6.26074C12.6191 6.09277 12.6436 5.92578 12.6768 5.75879C12.71 5.59277 12.751 5.42871 12.7998 5.2666C12.8496 5.10449 12.9063 4.94531 12.9707 4.78906C13.0361 4.63281 13.1084 4.47949 13.1875 4.33105C13.2676 4.18164 13.3545 4.03613 13.4492 3.89551C13.543 3.75488 13.6436 3.61914 13.751 3.48828C13.8584 3.35645 13.9717 3.23145 14.0918 3.1123C14.2119 2.99219 14.3369 2.87891 14.4678 2.77148C14.5986 2.66406 14.7344 2.5625 14.875 2.46875C15.0156 2.375 15.1611 2.28809 15.3105 2.20801C15.46 2.12793 15.6123 2.05566 15.7695 1.99121C15.9258 1.92578 16.085 1.86914 16.2471 1.82031C16.4092 1.77051 16.5732 1.72949 16.7393 1.69727C16.9053 1.66406 17.0723 1.63867 17.2412 1.62207C17.4092 1.60547 17.5781 1.59766 17.748 1.59766ZM5.86621 3.53613C3.90332 3.53613 2.31152 5.12793 2.31152 7.09082C2.31152 9.05469 3.90332 10.6455 5.86621 10.6455C7.83008 10.6455 9.42188 9.05469 9.42188 7.09082C9.42188 5.12793 7.83008 3.53613 5.86621 3.53613ZM18.0713 3.53613C16.1084 3.53613 14.5156 5.12793 14.5156 7.09082C14.5156 9.05469 16.1084 10.6455 18.0713 10.6455C20.0342 10.6455 21.626 9.05469 21.626 7.09082C21.626 5.12793 20.0342 3.53711 18.0713 3.53613Z" fill="currentColor"/>
<path d="M22.3096 20.5518C22.2031 20.5518 22.0947 20.5234 21.9971 20.4648C19.1816 18.7754 15.1367 19.3232 15.0957 19.3291C14.7559 19.377 14.4551 19.1445 14.4082 18.8125C14.3613 18.4795 14.5918 18.1719 14.9238 18.124C15.1074 18.0986 19.4326 17.5078 22.623 19.4219C22.9111 19.5947 23.0039 19.9678 22.831 20.2559C22.7178 20.4463 22.5166 20.5518 22.3096 20.5518Z" fill="currentColor"/>
<path d="M20.4854 22.377C20.2998 22.377 20.1182 22.293 19.999 22.1338C18.3389 19.9209 14.9443 19.333 14.9111 19.3271C14.5791 19.2725 14.3555 18.959 14.4111 18.6279C14.4658 18.2959 14.7793 18.0684 15.1104 18.1279C15.2695 18.1543 19.0234 18.8057 20.9717 21.4043C21.1738 21.6729 21.1191 22.0547 20.8506 22.2559C20.7402 22.3369 20.6133 22.377 20.4854 22.377ZM1.62891 20.5518C1.42188 20.5518 1.22071 20.4463 1.10645 20.2568C0.9336 19.9687 1.02735 19.5947 1.31544 19.4219C4.50489 17.5088 8.83106 18.0996 9.01368 18.125C9.34571 18.1719 9.57716 18.4805 9.53028 18.8125C9.48243 19.1455 9.17579 19.3789 8.84278 19.3301C8.80274 19.3242 4.75684 18.7773 1.94141 20.4658C1.84376 20.5234 1.73536 20.5518 1.62891 20.5518Z" fill="currentColor"/>
<path d="M3.45215 22.377C3.32617 22.377 3.19727 22.3369 3.08789 22.2549C2.81934 22.0537 2.76465 21.6719 2.9668 21.4043C4.91504 18.8057 8.66895 18.1543 8.82715 18.127C9.16016 18.0684 9.47168 18.2949 9.52637 18.627C9.58203 18.958 9.35938 19.2715 9.02832 19.3272C8.99414 19.333 5.59277 19.9297 3.93945 22.1328C3.82031 22.293 3.6377 22.377 3.45215 22.377Z" fill="currentColor"/>
<path d="M9.55273 13.9316C8.83301 13.9316 8.25 14.5146 8.25 15.2344C8.25 15.9541 8.83301 16.5371 9.55273 16.5371C10.2725 16.5371 10.8564 15.9541 10.8564 15.2344C10.8564 14.5146 10.2725 13.9316 9.55273 13.9316Z" fill="currentColor"/>
<path d="M14.4277 13.9316C13.708 13.9316 13.125 14.5146 13.125 15.2344C13.125 15.9541 13.708 16.5371 14.4277 16.5371C15.1475 16.5371 15.7314 15.9541 15.7314 15.2344C15.7314 14.5146 15.1475 13.9316 14.4277 13.9316Z" fill="currentColor"/>
<path d="M4.42285 6.50781L6.01758 8.25293" stroke="currentColor" stroke-linecap="round"/>
<path d="M6.16699 5.49316L7.08105 7.48047" stroke="currentColor" stroke-linecap="round"/>
<path d="M18.0059 5.36621L16.8291 7.41602" stroke="currentColor" stroke-linecap="round"/>
<path d="M19.5039 6.71777L17.8887 8.19336" stroke="currentColor" stroke-linecap="round"/>
<path d="M11.9688 6.46387C15.0107 6.46387 19.2686 7.57129 19.2686 11.9385C19.2686 16.3057 14.4023 21.0625 11.9688 21.0625C9.53613 21.0625 4.66992 16.3057 4.66992 11.9385C4.66992 7.57129 8.92773 6.46387 11.9688 6.46387ZM11.9688 17.459C11.29 17.459 10.2021 17.6729 10.2021 18.6484C10.2021 19.625 11.4248 20.6875 11.9688 20.6875C12.5127 20.6875 13.7363 19.625 13.7363 18.6484C13.7363 17.6729 12.6484 17.459 11.9688 17.459ZM9.53613 12.5469C8.31958 12.5469 8.31934 13.7632 8.31934 13.7637V14.9795C8.31934 14.9795 8.31934 16.1963 9.53613 16.1963C10.7529 16.1963 10.7529 14.9795 10.7529 14.9795V13.7637C10.7529 13.7632 10.7527 12.5469 9.53613 12.5469ZM14.4023 12.5469C13.1858 12.5469 13.1855 13.7632 13.1855 13.7637V14.9795C13.1855 14.9795 13.1855 16.1963 14.4023 16.1963C15.6191 16.1963 15.6191 14.9795 15.6191 14.9795V13.7637C15.6191 13.7632 15.6189 12.5469 14.4023 12.5469Z" fill="currentColor"/>
</svg>
